<svg id="Capa_1" enable-background="new 0 0 512 512" height="512" viewBox="0 0 512 512" width="512" xmlns="http://www.w3.org/2000/svg"><g><g><g><path d="m256 502c-69.196 0-125.29-56.094-125.29-125.29v-93.42c0-69.196 56.094-125.29 125.29-125.29 69.196 0 125.29 56.094 125.29 125.29v93.42c0 69.196-56.094 125.29-125.29 125.29z" fill="#fff2a0"/><g fill="#89df8f"><path d="m346.3 48.04c-4.64 10.05-15.55 33.91-27.7 62.31-9.08 3.91-18.23 8.69-27.07 14.53-.94.62-1.87 1.25-2.77 1.87l-11.17-39.04c.81-.56 1.62-1.11 2.43-1.66 24.67-16.58 60.72-35.16 66.28-38.01z"/><path d="m233.33 86.96-11.18 39.04c-.55-.37-1.11-.75-1.68-1.12-8.84-5.84-17.99-10.62-27.07-14.53-12.15-28.4-23.06-52.26-27.7-62.31 5.56 2.85 41.61 21.43 66.28 38.01.45.3.9.61 1.35.91z"/><path d="m288.76 126.75c-15.77 10.89-26.1 22.27-32.76 31.25-6.81-9.19-17.47-20.89-33.85-32l11.18-39.04 22.02-76.96 22.24 77.71z"/></g><path d="m256 158c-23.87 0-46.17 6.67-65.16 18.26-1.12-6.69-3.16-13.98-6.62-21.62-16.36-36.23-53.2-55.66-66.58-62.04 18.5 1.3 63.64 6.42 102.83 32.28 17.34 11.44 28.49 23.62 35.53 33.12z" fill="#b8ecbc"/><path d="m394.36 92.6c-13.38 6.38-50.22 25.81-66.58 62.04-3.46 7.64-5.5 14.93-6.62 21.62-18.99-11.59-41.29-18.26-65.16-18.26 7.04-9.5 18.19-21.68 35.53-33.12 39.19-25.86 84.33-30.98 102.83-32.28z" fill="#b8ecbc"/></g></g><g><path d="m404.03 90.053c-1.224-4.646-5.588-7.766-10.371-7.429-15.849 1.114-35.741 3.911-56.593 10.284 7.825-17.801 14.473-32.361 18.312-40.677 1.788-3.873.922-8.453-2.155-11.407-3.077-2.953-7.688-3.628-11.486-1.684-8.561 4.389-35.584 18.472-58.274 32.754l-18.5-64.647c-1.227-4.289-5.15-7.247-9.613-7.247s-8.386 2.958-9.614 7.249l-18.304 63.953c-22.434-14.03-48.744-27.742-57.17-32.061-3.797-1.946-8.408-1.269-11.486 1.684-3.078 2.954-3.943 7.534-2.155 11.407 3.839 8.316 10.488 22.876 18.313 40.677-20.852-6.373-40.744-9.17-56.593-10.284-4.791-.341-9.147 2.783-10.371 7.429s1.03 9.505 5.366 11.573c17.121 8.163 47.913 26.441 61.775 57.139 1.903 4.201 3.414 8.522 4.535 12.902-35.561 24.402-58.936 65.331-58.936 111.623v93.42c0 74.598 60.691 135.289 135.29 135.289s135.29-60.691 135.29-135.29v-93.42c0-46.294-23.378-87.226-58.943-111.627.21-.823.43-1.642.667-2.455 1.546-5.302-1.499-10.853-6.8-12.4-4.527-1.32-9.222.711-11.465 4.627-11.846-5.734-24.648-9.792-38.098-11.861 6.063-5.917 12.869-11.388 20.387-16.348 23.496-15.504 49.831-23.312 71.138-27.232.177.391.38.775.612 1.15 2.903 4.699 9.067 6.154 13.763 3.252 5.12-3.163 10.54-6.113 16.112-8.77 4.337-2.067 6.591-6.926 5.367-11.573zm-79.012-19.319c-4.215 9.435-9.012 20.326-14.041 32.024-5.464 2.498-10.904 5.298-16.273 8.413l-5.496-19.206c11.244-7.323 24.427-14.933 35.81-21.231zm-69.667-24.385 21.867 76.415c-7.852 5.946-14.947 12.442-21.218 19.44-6.555-7.316-14.012-14.083-22.291-20.245zm.649 121.651c7.588 0 15.005.745 22.187 2.151l-22.187 22.188-22.187-22.189c7.182-1.405 14.599-2.15 22.187-2.15zm-69.018-97.265c11.008 6.09 23.708 13.411 34.711 20.517l-5.516 19.272c-5.005-2.857-10.07-5.44-15.154-7.765-5.028-11.699-9.825-22.589-14.041-32.024zm6.352 79.789c-7.405-16.399-18.616-29.693-30.495-40.209 16.896 4.606 35.242 11.772 52.124 22.912 7.519 4.961 14.339 10.427 20.405 16.344-13.372 2.055-26.105 6.075-37.894 11.755-1.165-3.658-2.54-7.268-4.14-10.802zm18.744 26.177 29.78 29.781-48.505 48.508-34.193-34.193c12.678-19.578 31.126-35.083 52.918-44.096zm159.212 106.589v24.347l-38.501-38.503 29.79-29.79c5.608 13.551 8.711 28.392 8.711 43.946zm-4.142 48.49-48.503 48.503-48.503-48.503 48.504-48.504zm-222.296 0 48.501-48.504 48.508 48.508-48.501 48.504zm4.569-92.436 29.79 29.79-38.501 38.503v-24.347c0-15.554 3.103-30.395 8.711-43.946zm106.579 106.578 48.503 48.503-48.503 48.502-48.503-48.503zm.003-28.281-48.508-48.508 48.505-48.508 48.506 48.509zm-115.293 38.281 38.507 38.507-28.728 28.722c-6.282-14.216-9.779-29.927-9.779-46.441zm19.868 85.422 32.777-32.777 48.503 48.503-27.243 27.243c-22.088-8.524-40.914-23.658-54.037-42.969zm76.24 49.051 19.183-19.181 19.181 19.181c-6.24 1.05-12.647 1.605-19.182 1.605-6.534 0-12.941-.555-19.182-1.605zm60.568-6.082-27.241-27.241 48.505-48.5 32.772 32.772c-13.123 19.311-31.949 34.445-54.036 42.969zm64.126-61.163-28.72-28.72 38.498-38.505v20.785c0 16.514-3.497 32.224-9.778 46.44zm-8.672-202.352-34.192 34.194-48.506-48.509 29.78-29.781c21.792 9.012 40.24 24.517 52.918 44.096z"/><circle cx="344.211" cy="129.391" r="10"/></g></g></svg>