<svg id="Capa_1" enable-background="new 0 0 512 512" height="512" viewBox="0 0 512 512" width="512" xmlns="http://www.w3.org/2000/svg"><g><g><g><circle cx="256" cy="256" fill="#fff2a0" r="138.333"/></g></g><g><path d="m391.084 287.587c-5.274-1.64-10.879 1.306-12.519 6.579-16.774 53.932-66.03 90.168-122.565 90.168-70.763 0-128.334-57.57-128.334-128.333s57.571-128.335 128.334-128.335c56.145 0 105.298 35.913 122.312 89.364 1.675 5.263 7.298 8.173 12.562 6.496 5.263-1.675 8.171-7.299 6.496-12.562-9.474-29.765-27.8-55.391-52.996-74.108-25.705-19.096-56.265-29.19-88.374-29.19-81.792 0-148.334 66.542-148.334 148.333s66.542 148.334 148.334 148.334c32.282 0 62.973-10.192 88.756-29.474 24.921-18.637 43.71-45.185 52.907-74.753 1.64-5.274-1.305-10.878-6.579-12.519z"/><circle cx="394.333" cy="256" r="10"/><path d="m256 77.666c5.523 0 10-4.477 10-10v-57.666c0-5.523-4.477-10-10-10s-10 4.477-10 10v57.666c0 5.523 4.477 10 10 10z"/><path d="m115.757 129.899c1.953 1.953 4.512 2.929 7.071 2.929s5.119-.976 7.071-2.929c3.905-3.905 3.905-10.237 0-14.143l-40.776-40.776c-3.905-3.905-10.237-3.905-14.143 0-3.905 3.905-3.905 10.237 0 14.143z"/><path d="m77.666 256c0-5.523-4.477-10-10-10h-57.666c-5.523 0-10 4.477-10 10s4.477 10 10 10h57.666c5.523 0 10-4.477 10-10z"/><path d="m115.757 382.101-40.777 40.776c-3.905 3.905-3.905 10.237 0 14.142 1.953 1.953 4.512 2.929 7.071 2.929s5.119-.976 7.071-2.929l40.776-40.776c3.905-3.905 3.905-10.237 0-14.143-3.904-3.905-10.236-3.905-14.141.001z"/><path d="m256 434.333c-5.523 0-10 4.477-10 10v57.667c0 5.523 4.477 10 10 10s10-4.477 10-10v-57.667c0-5.523-4.477-10-10-10z"/><path d="m396.243 382.101c-3.905-3.905-10.237-3.905-14.143 0-3.905 3.905-3.905 10.237 0 14.143l40.776 40.776c1.953 1.953 4.512 2.929 7.071 2.929s5.119-.976 7.071-2.929c3.905-3.905 3.905-10.237 0-14.142z"/><path d="m502 246h-57.667c-5.523 0-10 4.477-10 10s4.477 10 10 10h57.667c5.523 0 10-4.477 10-10s-4.477-10-10-10z"/><path d="m389.172 132.828c2.559 0 5.119-.976 7.071-2.929l40.776-40.776c3.905-3.905 3.905-10.237 0-14.143-3.905-3.905-10.237-3.905-14.142 0l-40.776 40.776c-3.905 3.905-3.905 10.237 0 14.143 1.952 1.953 4.512 2.929 7.071 2.929z"/></g></g></svg>