<svg id="Capa_1" enable-background="new 0 0 511.986 511.986" height="512" viewBox="0 0 511.986 511.986" width="512" xmlns="http://www.w3.org/2000/svg"><g><g><g><path d="m484.343 501.986c-138.156 0-276.313 0-414.469 0 18.951-16.552 94.005-78.173 207.234-78.173 24.927 0 121.147 2.987 207.235 78.173z" fill="#fff2a0"/><g fill="#b8ecbc"><path d="m340.222 10.128c-37.11 39.53-74.22 79.05-111.32 118.579-8.92 7.9-14.23 14.74-15.78 16.81-.84-6.87-6.02-56.97 31.92-97.39 37.94-40.409 88.26-38.399 95.18-37.999z"/><path d="m398.582 136.018c-54.24 2.78-108.49 5.56-162.729 8.34-11.75-.47-20.2.76-22.73 1.16 4.16-5.53 35.15-45.24 90.51-48.07 55.349-2.84 90.239 33.49 94.949 38.57z"/><path d="m213.118 145.522c46.699 40.633 93.398 81.266 140.098 121.899.134-6.925.245-57.293-41.572-93.678s-91.686-29.312-98.526-28.221z"/><path d="m213.123 145.518c-2.56-.41-11.16-1.65-23.1-1.15-54.13-2.69-108.26-5.38-162.379-8.08 4.7-5.08 39.53-41.47 94.89-38.71 55.369 2.75 86.409 42.42 90.589 47.94z"/><path d="m213.123 145.518c-2.11 1.47-9.01 6.43-17.12 14.89-40.99 35.68-81.99 71.34-122.979 107.01-.14-6.92-.25-57.29 41.57-93.68 41.819-36.38 91.689-29.31 98.529-28.22z"/><path d="m213.118 145.522c-5.41 61.665-10.82 123.33-16.23 184.995-4.904-4.891-39.947-41.071-35.103-96.289 4.845-55.218 45.652-84.743 51.333-88.706z"/></g><path d="m284.751 336.632c7.76-10.55 14.419-21.069 20.139-31.348-.223-.713-.44-1.423-.668-2.138-6.959-21.852-15.256-41.735-24.16-59.671-2.741 4.162-5.638 8.342-8.717 12.532-9.112 12.407-18.67 23.383-28.252 33.077.394 6.026.692 12.159.879 18.402.833 28.113-.682 53.991-3.445 77.209 14.819-12.925 30.035-28.766 44.224-48.063z" fill="#c68a65"/><path d="m280.063 243.476c-22.287-44.894-48.39-77.537-66.94-97.958 12.379 34.364 26.043 83.468 29.971 143.567 9.583-9.694 19.14-20.67 28.252-33.077 3.079-4.19 5.975-8.37 8.717-12.532z" fill="#ddb9a3"/><path d="m304.89 305.285c-5.72 10.279-12.379 20.798-20.139 31.348-14.189 19.297-29.405 35.137-44.223 48.063-1.815 15.251-4.162 29.365-6.755 42.171 13.74-1.95 28.2-3.05 43.34-3.05 8.49 0 25.26.35 47.08 3.78-.346-32.374-4.484-74.912-19.303-122.312z" fill="#ddb9a3"/></g></g><g><path d="m490.921 494.455c-37.776-32.993-81.698-56.346-130.547-69.41-8.685-2.323-17.503-4.297-26.354-5.914-1.204-40.529-8.011-80.526-20.271-119.018-9.722-30.525-23.026-60.156-39.417-88.072l72.318 62.924c1.855 1.615 4.197 2.456 6.566 2.456 1.372 0 2.753-.282 4.055-.86 3.55-1.576 5.866-5.064 5.941-8.947.197-10.224-1.044-63.164-45.006-101.415-6.923-6.024-14.06-10.946-21.211-14.961l102.097-5.233c3.878-.199 7.291-2.624 8.753-6.222s.709-7.716-1.932-10.564c-6.95-7.497-44.56-44.746-102.794-41.758-9.082.464-17.563 1.851-25.436 3.891 11.131-11.856 22.26-23.713 33.391-35.57l36.437-38.81c2.657-2.831 3.436-6.943 1.997-10.55-1.439-3.606-4.834-6.054-8.71-6.278-10.209-.587-63.127-1.381-103.049 41.139-25.13 26.773-32.807 57.562-34.737 79.251-16.479-14.277-43.403-31.129-79.983-32.946-58.19-2.892-95.784 34.4-102.729 41.907-2.638 2.851-3.386 6.971-1.919 10.567s4.883 6.018 8.762 6.212c33.96 1.694 67.928 3.381 101.895 5.07-7.085 3.994-14.153 8.881-21.012 14.848-44.017 38.302-45.211 91.21-45.003 101.427.079 3.881 2.397 7.366 5.946 8.939 1.3.577 2.68.858 4.05.858 2.369 0 4.711-.842 6.566-2.457l49.093-42.715c9.344-8.129 18.686-16.261 28.03-24.391-2.362 7.856-4.085 16.354-4.887 25.499-5.092 58.054 30.763 97.021 38.002 104.243 1.908 1.903 4.461 2.921 7.064 2.921 1.147 0 2.306-.198 3.423-.605 3.648-1.33 6.197-4.653 6.537-8.521l11.741-133.824c9.113 36.077 14.272 72.977 15.386 110.216 1.092 36.861-1.825 73.913-8.669 110.249-31.471 5.176-62.13 15.101-91.608 29.699-25.545 12.65-49.89 28.807-70.403 46.723-3.139 2.742-4.249 7.142-2.784 11.045 1.464 3.902 5.194 6.487 9.362 6.487h271.885c5.522 0 10-4.477 10-10s-4.478-10-10-10h-243.024c35.227-25.104 97.072-58.173 178.375-58.173 31.081 0 106.483 6.064 178.613 58.173h-29.963c-5.522 0-10 4.477-10 10s4.478 10 10 10h58.584c4.168 0 7.898-2.585 9.362-6.487 1.466-3.901.356-8.302-2.783-11.043zm-253.005-302.045c11.444 16.221 21.726 33.248 30.759 50.858-1.758 2.565-3.552 5.103-5.371 7.578-3.851 5.244-7.917 10.376-12.155 15.379-2.672-24.875-7.085-49.526-13.233-73.815zm16.052 114.778c-.136-4.543-.335-9.08-.587-13.612 9.021-9.37 17.465-19.344 25.161-29.714 5.825 13.065 10.958 26.395 15.359 39.915-5.263 9.165-11.092 18.109-17.365 26.636-7.22 9.82-15.103 19.167-23.534 27.99 1.139-17.056 1.471-34.155.966-51.215zm86.786-63.866-102.048-88.792c18.325 1.219 43.703 7.03 66.373 26.756 22.668 19.723 31.933 44.054 35.675 62.036zm-36.609-135.887c1.896-.097 3.762-.144 5.606-.144 27.35 0 48.927 10.34 63.139 20.031l-135.113 6.925c14.029-11.843 36.329-25.277 66.368-26.812zm-51.813-52.462c20.586-21.926 45.246-30.261 63.348-33.314l-19.184 20.434c-24.479 26.072-48.956 52.144-73.429 78.219 1.899-18.249 8.66-43.386 29.265-65.339zm-130.295 52.592c29.96 1.488 52.289 14.886 66.363 26.71-45.027-2.238-90.054-4.476-135.075-6.719 15.16-10.368 38.708-21.494 68.712-19.991zm-6.484 109.592-30.087 26.178c3.732-17.972 12.993-42.303 35.69-62.053 22.668-19.719 48.043-25.532 66.369-26.753-23.989 20.881-47.981 41.755-71.972 62.628zm73.577 87.364c-9.788-15.541-20.009-39.486-17.383-69.419 2.626-29.935 16.86-51.735 29.205-65.333zm56.994 110.794c1.534-8.731 2.849-17.498 3.947-26.291 15.755-14.061 30.08-29.763 42.578-46.762 3.022-4.107 5.943-8.308 8.761-12.578 7.18 28.221 11.357 57.154 12.481 86.397-12.432-1.497-24.784-2.268-36.782-2.268-10.397 0-20.729.506-30.985 1.502z"/><circle cx="383.759" cy="501.986" r="10"/></g></g></svg>