<svg id="Capa_1" enable-background="new 0 0 512 512" height="512" viewBox="0 0 512 512" width="512" xmlns="http://www.w3.org/2000/svg"><g><g><g><path d="m10 135.556h492v210.444h-492z" fill="#fff2a0"/><path d="m10 346h492v80.444h-492z" fill="#b8ecbc"/><circle cx="79.63" cy="205.185" fill="#ff9c9b" r="25"/><circle cx="256" cy="281" fill="#a0c8ff" r="105"/><circle cx="256" cy="281" fill="#faf7f5" r="65"/><path d="m362.37 135.556h-212.74l55.239-50h102.262z" fill="#b8ecbc"/><path d="m49.63 95.556h60v40h-60z" fill="#a0c8ff"/><path d="m411.5 180.185h40v117.185h-40z" fill="#ff9c9b"/></g></g><g><path d="m502 125.556h-28.4c-5.523 0-10 4.477-10 10s4.477 10 10 10h18.4v190.444h-135.029c8.94-16.348 14.029-35.09 14.029-55 0-63.411-51.589-115-115-115s-115 51.589-115 115c0 19.91 5.088 38.652 14.029 55h-135.029v-190.444h369.6c5.523 0 10-4.477 10-10s-4.477-10-10-10h-23.376l-52.382-47.414c-1.839-1.664-4.231-2.586-6.711-2.586h-102.262c-2.48 0-4.872.922-6.711 2.586l-52.382 47.414h-26.146v-30c0-5.523-4.477-10-10-10h-60c-5.523 0-10 4.477-10 10v30h-29.63c-5.523 0-10 4.477-10 10v290.889c0 5.523 4.477 10 10 10h492c5.523 0 10-4.477 10-10v-290.889c0-5.523-4.477-10-10-10zm-293.278-30h94.556l33.143 30h-160.842zm-149.093 10h40v20h-40zm196.371 80.444c52.383 0 95 42.617 95 95s-42.617 95-95 95-95-42.617-95-95 42.617-95 95-95zm-236 230.444v-60.444h148.893c21.105 24.478 52.327 40 87.107 40s66.001-15.522 87.107-40h148.893v60.444z"/><circle cx="431.6" cy="135.556" r="10"/><path d="m44.629 205.185c0 19.299 15.701 35 35 35s35-15.701 35-35-15.701-35-35-35-35 15.701-35 35zm50 0c0 8.271-6.729 15-15 15s-15-6.729-15-15 6.729-15 15-15 15 6.729 15 15z"/><path d="m256 356c41.355 0 75-33.645 75-75s-33.645-75-75-75-75 33.645-75 75 33.645 75 75 75zm0-130c30.327 0 55 24.673 55 55s-24.673 55-55 55-55-24.673-55-55 24.673-55 55-55z"/><path d="m411.5 307.371h40c5.523 0 10-4.477 10-10v-117.186c0-5.523-4.477-10-10-10h-40c-5.523 0-10 4.477-10 10v117.186c0 5.523 4.477 10 10 10zm10-117.186h20v97.186h-20z"/></g></g></svg>