<svg id="Capa_1" enable-background="new 0 0 512 512" height="512" viewBox="0 0 512 512" width="512" xmlns="http://www.w3.org/2000/svg"><g><g><g><g fill="#89df8f"><path d="m311.95 83.8c-7.42 5.48-14.55 12.07-21.03 19.99-2.86 3.5-5.54 7.2-8.03 11.05-8.71-1.65-17.7-2.51-26.89-2.51s-18.18.86-26.89 2.51c-2.49-3.85-5.17-7.55-8.03-11.05-6.48-7.92-13.61-14.51-21.03-19.99 13.79-43.56 49.44-69.26 55.95-73.8 6.51 4.54 42.16 30.24 55.95 73.8z"/><path d="m130.06 186.82c-8.55 15.52-14.31 32.79-16.61 51.13-4.43 1.18-8.78 2.59-13 4.23-9.54 3.71-18.01 8.45-25.51 13.82-37.17-26.57-50.6-68.42-52.9-76.02 6.33-4.78 41.79-30.75 87.48-30.4 2.91 8.75 6.98 17.56 12.51 26.17 2.45 3.81 5.14 7.51 8.03 11.07z"/><path d="m200.05 428.2c-36.76 27.13-80.71 26.97-88.65 26.82-2.6-7.5-16.33-49.25-1.88-92.6 9.22-.06 18.86-1.21 28.76-3.81 4.39-1.15 8.74-2.57 13.03-4.22 12.31 13.09 27.04 23.87 43.47 31.62-.24 4.58-.25 9.15.01 13.66.58 10.22 2.47 19.74 5.26 28.53z"/><path d="m400.6 455.02c-7.94.15-51.89.31-88.65-26.82 2.79-8.79 4.68-18.31 5.26-28.53.26-4.51.25-9.08.01-13.66 16.43-7.75 31.16-18.53 43.47-31.62 4.29 1.65 8.64 3.07 13.03 4.22 9.9 2.6 19.54 3.75 28.76 3.81 14.45 43.35.72 85.1-1.88 92.6z"/><path d="m489.96 179.98c-2.3 7.6-15.73 49.45-52.9 76.02-7.5-5.37-15.97-10.11-25.51-13.82-4.22-1.64-8.57-3.05-13-4.23-2.3-18.34-8.06-35.61-16.61-51.13 2.89-3.56 5.58-7.26 8.03-11.07 5.53-8.61 9.6-17.42 12.51-26.17 45.69-.35 81.15 25.62 87.48 30.4z"/></g><path d="m229.11 114.84c-12.04 2.28-23.55 6.07-34.33 11.15-16.43 7.75-31.16 18.53-43.47 31.62-8.25 8.77-15.41 18.58-21.25 29.21-2.89-3.56-5.58-7.26-8.03-11.07-5.53-8.61-9.6-17.42-12.51-26.17-14.45-43.35-.72-85.1 1.88-92.6 7.94-.15 51.89-.31 88.65 26.82 7.42 5.48 14.55 12.07 21.03 19.99 2.86 3.5 5.54 7.2 8.03 11.05z" fill="#b8ecbc"/><path d="m151.31 354.39c-4.29 1.65-8.64 3.07-13.03 4.22-9.9 2.6-19.54 3.75-28.76 3.81-45.69.35-81.15-25.62-87.48-30.4 2.3-7.6 15.73-49.45 52.9-76.02 7.5-5.37 15.97-10.11 25.51-13.82 4.22-1.64 8.57-3.05 13-4.23-.74 5.91-1.12 11.94-1.12 18.05s.38 12.14 1.12 18.05c2.3 18.34 8.06 35.61 16.61 51.13 5.84 10.63 13 20.44 21.25 29.21z" fill="#b8ecbc"/><path d="m317.21 399.67c-.58 10.22-2.47 19.74-5.26 28.53-13.79 43.56-49.44 69.26-55.95 73.8-6.51-4.54-42.16-30.24-55.95-73.8-2.79-8.79-4.68-18.31-5.26-28.53-.26-4.51-.25-9.08-.01-13.66 10.78 5.08 22.29 8.87 34.33 11.15 8.71 1.65 17.7 2.51 26.89 2.51s18.18-.86 26.89-2.51c12.04-2.28 23.55-6.07 34.33-11.15.24 4.58.25 9.15-.01 13.66z" fill="#b8ecbc"/><path d="m489.96 332.02c-6.33 4.78-41.79 30.75-87.48 30.4-9.22-.06-18.86-1.21-28.76-3.81-4.39-1.15-8.74-2.57-13.03-4.22 8.25-8.77 15.41-18.58 21.25-29.21 8.55-15.52 14.31-32.79 16.61-51.13.74-5.91 1.12-11.94 1.12-18.05s-.38-12.14-1.12-18.05c4.43 1.18 8.78 2.59 13 4.23 9.54 3.71 18.01 8.45 25.51 13.82 37.17 26.57 50.6 68.42 52.9 76.02z" fill="#b8ecbc"/><path d="m402.48 149.58c-2.91 8.75-6.98 17.56-12.51 26.17-2.45 3.81-5.14 7.51-8.03 11.07-5.84-10.63-13-20.44-21.25-29.21-12.31-13.09-27.04-23.87-43.47-31.62-10.78-5.08-22.29-8.87-34.33-11.15 2.49-3.85 5.17-7.55 8.03-11.05 6.48-7.92 13.61-14.51 21.03-19.99 36.76-27.13 80.71-26.97 88.65-26.82 2.6 7.5 16.33 49.25 1.88 92.6z" fill="#b8ecbc"/><circle cx="256" cy="256" fill="#fff2a0" r="143.667"/></g></g><g><path d="m453.124 256c30.474-26.734 43.067-62.086 46.408-73.123 1.214-4.011-.201-8.352-3.545-10.877-9.217-6.959-40.252-28.129-80.514-31.853 8.93-39.519-1.645-75.543-5.424-86.443-1.81-5.217-7.501-7.983-12.725-6.172-5.218 1.81-7.981 7.506-6.172 12.724 3.655 10.542 14.592 47.912 1.84 86.168-2.614 7.86-6.153 15.391-10.504 22.421-19.684-28.478-48.722-50.012-82.64-60.128 5.316-6.27 11.373-11.946 18.042-16.872 2.281-1.684 4.67-3.308 7.101-4.827 4.684-2.927 6.107-9.097 3.181-13.78-2.395-3.831-6.957-5.477-11.102-4.349-15.961-37.405-45.852-60.47-55.347-67.092-3.438-2.397-8.004-2.397-11.441 0-9.465 6.601-39.193 29.54-55.192 66.732-34.79-20.669-72.343-21.768-83.875-21.548-4.19.079-7.887 2.762-9.26 6.722-3.779 10.9-14.354 46.927-5.424 86.443-40.262 3.726-71.301 24.895-80.517 31.854-3.344 2.525-4.759 6.866-3.545 10.877 3.34 11.037 15.934 46.389 46.408 73.124-30.474 26.734-43.068 62.087-46.408 73.124-1.214 4.01.201 8.352 3.545 10.877 9.218 6.96 40.257 28.131 80.514 31.854-8.929 39.519 1.645 75.542 5.424 86.442 1.373 3.96 5.069 6.643 9.26 6.722.68.013 1.45.022 2.305.022 13.651 0 48.829-2.126 81.568-21.575 15.998 37.196 45.73 60.137 55.195 66.738 1.719 1.199 3.72 1.798 5.721 1.798s4.002-.599 5.721-1.798c9.466-6.602 39.199-29.544 55.195-66.737 32.74 19.45 67.918 21.575 81.567 21.575.854 0 1.626-.008 2.305-.022 4.19-.079 7.887-2.762 9.26-6.722 3.779-10.9 14.354-46.924 5.424-86.443 40.26-3.726 71.299-24.894 80.515-31.852 3.344-2.525 4.759-6.867 3.545-10.877-3.342-11.041-15.936-46.395-46.409-73.127zm-54.74-74.845c4.344-6.764 8.031-13.94 11.014-21.404 30.902 1.689 56.271 15.773 68.717 24.089-5.153 14.025-17.365 40.329-41.431 59.87-6.816-4.297-14.023-7.938-21.512-10.85-2.503-.972-5.077-1.871-7.691-2.705-2.538-14.922-7.234-29.116-13.756-42.252 1.634-2.222 3.197-4.475 4.659-6.748zm-85.793 195.922c4.065-18.156 7.221-36.584 9.439-55.057 18.465-2.211 36.889-5.362 55.047-9.428-13.279 28.297-36.189 51.206-64.486 64.485zm-177.672-64.493c18.176 4.066 36.602 7.221 55.051 9.436 2.217 18.474 5.373 36.902 9.438 55.057-28.299-13.28-51.21-36.193-64.489-64.493zm64.497-177.664c-4.065 18.176-7.221 36.605-9.435 55.061-18.455 2.215-36.884 5.37-55.062 9.436 13.28-28.303 36.194-51.217 64.497-64.497zm90.674-8.175c5.01 20.1 8.874 40.593 11.518 61.151-13.857-1.14-27.846-1.77-41.739-1.866-16.474-.112-33.064.527-49.478 1.88 2.644-20.562 6.509-41.061 11.519-61.165 10.888-2.874 22.312-4.412 34.09-4.412 11.778.001 23.202 1.539 34.09 4.412zm99.577 129.255c0 11.779-1.538 23.204-4.413 34.092-20.082 5.014-40.576 8.878-61.151 11.519 1.14-13.866 1.77-27.856 1.867-41.743.115-16.483-.525-33.075-1.879-49.488 20.588 2.646 41.087 6.513 61.164 11.526 2.874 10.89 4.412 22.315 4.412 34.094zm-267.334 0c0-11.778 1.538-23.202 4.412-34.09 20.106-5.011 40.603-8.876 61.165-11.519-1.354 16.413-1.994 33.002-1.88 49.478.096 13.892.726 27.881 1.866 41.739-20.555-2.644-41.048-6.508-61.151-11.518-2.874-10.888-4.412-22.312-4.412-34.09zm85.83 47.833c-1.31-14.619-2.031-29.416-2.133-44.103-.12-17.179.602-34.484 2.137-51.564 17.08-1.536 34.382-2.258 51.563-2.138 14.688.102 29.485.824 44.104 2.134 1.535 17.077 2.255 34.385 2.136 51.568-.101 14.68-.823 29.479-2.133 44.108-14.624 1.31-29.423 2.03-44.106 2.132-17.183.118-34.488-.602-51.568-2.137zm13.745 81.421c-5.013-20.077-8.879-40.574-11.526-61.16 15.15 1.25 30.45 1.89 45.673 1.89 1.272 0 2.544-.004 3.814-.013 13.892-.097 27.885-.727 41.75-1.867-2.647 20.581-6.514 41.075-11.526 61.15-10.888 2.874-22.314 4.413-34.092 4.413-11.78 0-23.205-1.538-34.093-4.413zm155.169-185.845c-18.155-4.065-36.583-7.221-55.058-9.438-2.215-18.453-5.37-36.878-9.435-55.051 28.3 13.279 51.213 36.19 64.493 64.489zm-121.077-176.951c11.751 9.251 33.003 29.018 44.146 57.907-6.197 5.161-11.887 10.887-16.97 17.099-1.695 2.075-3.346 4.247-4.95 6.483-7.259-1.056-14.678-1.613-22.226-1.613s-14.966.557-22.226 1.613c-1.605-2.237-3.257-4.411-4.955-6.489-5.079-6.207-10.768-11.931-16.965-17.093 11.143-28.889 32.396-48.656 44.146-57.907zm-137.279 44.604c16.041.625 48.054 4.608 75.389 24.782 6.673 4.928 12.731 10.606 18.044 16.873-33.918 10.116-62.957 31.65-82.64 60.128-4.353-7.032-7.891-14.562-10.507-22.427-10.759-32.276-4.652-63.923-.286-79.356zm-84.836 116.777c12.446-8.315 37.818-22.418 68.716-24.092 2.984 7.467 6.672 14.645 11.018 21.413 1.46 2.27 3.022 4.522 4.655 6.743-6.522 13.136-11.218 27.33-13.756 42.252-2.615.834-5.189 1.733-7.692 2.705-7.489 2.912-14.696 6.554-21.511 10.85-24.066-19.541-36.277-45.845-41.43-59.871zm46.876 80.292c6.732-4.82 14.001-8.824 21.621-11.941-.031 1.267-.048 2.536-.048 3.81 0 35.089 11.83 67.461 31.7 93.358-8.044 1.97-16.302 3.008-24.589 3.063-33.946.215-62.205-15.337-75.559-24.26 5.527-15.046 19.173-44.228 46.875-64.03zm36.288 108.013c8.021-.529 15.987-1.817 23.766-3.86 2.615-.685 5.264-1.483 7.921-2.363 10.593 10.339 22.668 19.163 35.875 26.122-.017 2.786.042 5.529.195 8.195.456 8.022 1.692 16 3.671 23.805-25.984 16.809-54.806 20.314-69.756 20.896-4.07-14.385-9.645-42.858-1.672-72.795zm138.951 117.398c-12.606-9.925-36.156-31.949-46.419-64.367-2.503-7.886-4.065-16.034-4.675-24.252 15.993 5.655 33.188 8.744 51.094 8.744 17.905 0 35.1-3.089 51.094-8.744-.609 8.214-2.171 16.364-4.676 24.259-10.263 32.412-33.811 54.435-46.418 64.36zm137.279-44.603c-14.95-.583-43.774-4.089-69.756-20.896 1.979-7.807 3.215-15.783 3.67-23.797.154-2.671.213-5.416.196-8.203 13.207-6.958 25.281-15.782 35.875-26.122 2.656.88 5.304 1.677 7.915 2.362 7.784 2.045 15.753 3.334 23.771 3.862 7.974 29.936 2.399 58.409-1.671 72.794zm10.106-92.515c-.278 0-.56-.001-.839-.003-8.276-.054-16.531-1.091-24.578-3.062 19.869-25.897 31.699-58.269 31.699-93.358 0-1.274-.017-2.544-.048-3.811 7.62 3.117 14.889 7.122 21.626 11.946 27.697 19.798 41.342 48.979 46.87 64.025-13.243 8.849-41.144 24.263-74.73 24.263z"/><circle cx="358.691" cy="62.107" r="10"/></g></g></svg>